<svg width="16" height="16" fill="#ffffff" xmlns="http://www.w3.org/2000/svg"><path d="m15.372 13.201-2.993-2.993 2.136-1.234a.503.503 0 0 0-.065-.903L4.927 4.273a.503.503 0 0 0-.654.653l3.798 9.524a.503.503 0 0 0 .903.065l1.234-2.135 2.993 2.993a.503.503 0 0 0 .71 0l1.461-1.46a.503.503 0 0 0 0-.712zm-1.816 1.105-3.1-3.1a.503.503 0 0 0-.792.103l-1.042 1.805-2.98-7.473 7.472 2.98-1.805 1.043a.503.503 0 0 0-.104.792l3.1 3.1zM2.688 1.976a.503.503 0 0 0-.711.712l1.117 1.117a.502.502 0 0 0 .712 0 .503.503 0 0 0 0-.711zM3.067 5.453a.503.503 0 0 0-.503-.503H.984a.503.503 0 1 0 0 1.006h1.58a.503.503 0 0 0 .503-.503zM2.863 7.006 1.745 8.124a.503.503 0 1 0 .711.71l1.118-1.117a.503.503 0 1 0-.711-.711zM5.454 3.066a.503.503 0 0 0 .503-.503V.983a.503.503 0 0 0-1.006 0v1.58c0 .278.225.503.503.503zM7.362 3.72a.501.501 0 0 0 .355-.146l1.118-1.118a.503.503 0 1 0-.711-.711L7.006 2.862a.503.503 0 0 0 .356.859z"/></svg>