<svg
   xmlns="http://www.w3.org/2000/svg"
   viewBox="0 0 36 36"
   width="36"
   height="36">
    <path
       style="fill:#ffffff;fill-opacity:1;stroke-width:0.04649166"
       d="m 18.208984,20.068359 a 1.1905118,1.1905118 0 0 0 -0.529296,0.107422 l -3.876954,1.759766 3.990235,1.810547 c 0.252915,0.114926 0.538099,0.114926 0.791015,0 l 3.976563,-1.804688 -3.890625,-1.765625 a 1.1905118,1.1905118 0 0 0 -0.460938,-0.107422 z m -5.74414,2.47461 -5.6152346,2.546875 c -0.769437,0.349153 -0.769437,1.512175 0,1.861328 l 10.8300786,4.912109 c 0.316144,0.143658 0.674089,0.143658 0.990234,0 L 29.5,26.951172 c 0.769437,-0.349153 0.769437,-1.512175 0,-1.861328 l -5.601562,-2.541016 -5.214844,2.365234 c -0.316145,0.143658 -0.674091,0.143658 -0.990235,0 z" />
    <path
       style="fill:#ffffff;fill-opacity:1;stroke-width:0.04649166"
       d="M 18.222656 13.119141 A 1.1905118 1.1905118 0 0 0 17.693359 13.226562 L 6.8632812 18.140625 C 6.0938444 18.489778 6.0938444 19.6528 6.8632812 20.001953 L 12.464844 22.542969 L 13.802734 21.935547 L 9.1289062 19.814453 C 8.5133562 19.53513 8.5133562 18.605494 9.1289062 18.326172 L 17.792969 14.396484 A 0.95240944 0.95240944 0 0 1 18.216797 14.310547 A 0.95240944 0.95240944 0 0 1 18.585938 14.396484 L 27.248047 18.326172 C 27.863596 18.605494 27.863596 19.53513 27.248047 19.814453 L 22.560547 21.941406 L 23.898438 22.548828 L 29.513672 20.001953 C 30.283109 19.6528 30.283109 18.489778 29.513672 18.140625 L 18.683594 13.226562 A 1.1905118 1.1905118 0 0 0 18.222656 13.119141 z " />
    <path
       style="fill:#ffffff;fill-opacity:1;stroke-width:0.04649166"
       d="M 18.222656,6.1621094 A 1.1905118,1.1905118 0 0 0 17.693359,6.2695312 L 6.8632812,11.181641 c -0.7694369,0.349153 -0.7694369,1.512175 0,1.861328 l 10.8281248,4.912109 c 0.316144,0.143658 0.67409,0.143658 0.990235,0 l 10.830078,-4.912109 c 0.769437,-0.349153 0.769437,-1.512175 0,-1.861328 L 18.681641,6.2695312 A 1.1905118,1.1905118 0 0 0 18.222656,6.1621094 Z m -0.0078,1.1894531 a 0.95240944,0.95240944 0 0 1 0.36914,0.085937 l 8.66211,3.929688 c 0.615549,0.279322 0.615549,1.210911 0,1.490234 l -8.66211,3.929687 c -0.252916,0.114926 -0.540053,0.114926 -0.792968,0 L 9.1269531,12.857422 c -0.6155496,-0.279323 -0.6155496,-1.210912 0,-1.490234 L 17.791016,7.4375 a 0.95240944,0.95240944 0 0 1 0.423828,-0.085937 z"/>
</svg>
