<svg
   xmlns="http://www.w3.org/2000/svg"
   viewBox="0 0 36 36"
   width="36"
   height="36">
  <path
     style="fill:#ffffff;fill-opacity:1;stroke-width:0.04649166"
     d="M 6.8625534,14.042943 17.69232,18.955718 c 0.316144,0.143658 0.673663,0.143658 0.989808,0 l 10.829767,-4.912775 c 0.769437,-0.349153 0.769437,-1.511908 0,-1.861061 L 18.682593,7.268644 a 1.1905118,1.1905118 0 0 0 -0.989808,0 L 6.8625534,12.181417 c -0.769437,0.349153 -0.769437,1.512373 0,1.861526 z" />
  <path
     style="fill:#ffffff;fill-opacity:1;stroke-width:0.04649166"
     d="m 29.512359,18.147227 -2.7007,-1.224125 -7.514911,3.406444 c -0.351478,0.159466 -0.724805,0.240362 -1.109292,0.240362 -0.384485,0 -0.757348,-0.0809 -1.109291,-0.240362 L 9.5637187,16.923102 6.8625534,18.147227 c -0.769437,0.348688 -0.769437,1.510979 0,1.859666 L 17.69232,24.915948 c 0.316144,0.143195 0.673663,0.143195 0.989808,0 l 10.830231,-4.909055 c 0.769437,-0.348687 0.769437,-1.510978 0,-1.859666 z" />
  <path
     style="fill:#ffffff;fill-opacity:1;stroke-width:0.04649166"
     d="M 9.5527344 22.869141 L 6.8632812 24.087891 C 6.0938443 24.436578 6.0938443 25.600532 6.8632812 25.949219 L 17.691406 30.857422 C 18.00755 31.000617 18.365496 31.000617 18.681641 30.857422 L 29.511719 25.949219 C 30.281156 25.600532 30.281156 24.436578 29.511719 24.087891 L 26.822266 22.869141 L 25.644531 23.404297 L 27.273438 24.142578 C 27.888987 24.421528 27.888987 25.351909 27.273438 25.630859 L 18.609375 29.556641 C 18.356459 29.671197 18.071274 29.671197 17.818359 29.556641 L 9.1542969 25.630859 C 8.5387473 25.351909 8.5387473 24.421528 9.1542969 24.142578 L 10.757812 23.416016 L 9.5527344 22.869141 z " />
</svg>
