<?xml version="1.0" encoding="UTF-8" standalone="no"?>
<svg
   xmlns:dc="http://purl.org/dc/elements/1.1/"
   xmlns:cc="http://creativecommons.org/ns#"
   xmlns:rdf="http://www.w3.org/1999/02/22-rdf-syntax-ns#"
   xmlns:svg="http://www.w3.org/2000/svg"
   xmlns="http://www.w3.org/2000/svg"
   xmlns:xlink="http://www.w3.org/1999/xlink"
   xmlns:sodipodi="http://sodipodi.sourceforge.net/DTD/sodipodi-0.dtd"
   xmlns:inkscape="http://www.inkscape.org/namespaces/inkscape"
   viewBox="0 0 36 36"
   width="36"
   height="36"
   version="1.1"
   id="svg4"
   sodipodi:docname="print-icon-2.svg"
   inkscape:version="0.92.4 (5da689c313, 2019-01-14)">
  <metadata
     id="metadata10">
    <rdf:RDF>
      <cc:Work
         rdf:about="">
        <dc:format>image/svg+xml</dc:format>
        <dc:type
           rdf:resource="http://purl.org/dc/dcmitype/StillImage" />
        <dc:title></dc:title>
      </cc:Work>
    </rdf:RDF>
  </metadata>
  <defs
     id="defs8">
    <linearGradient
       inkscape:collect="always"
       id="linearGradient882">
      <stop
         style="stop-color:#fffff0;stop-opacity:1;"
         offset="0"
         id="stop878" />
      <stop
         style="stop-color:#fffff0;stop-opacity:0;"
         offset="1"
         id="stop880" />
    </linearGradient>
    <linearGradient
       inkscape:collect="always"
       xlink:href="#linearGradient882"
       id="linearGradient884"
       x1="2.351"
       y1="489.60028"
       x2="976.851"
       y2="489.60028"
       gradientUnits="userSpaceOnUse" />
  </defs>
  <sodipodi:namedview
     pagecolor="#ffffff"
     bordercolor="#666666"
     borderopacity="1"
     objecttolerance="10"
     gridtolerance="10"
     guidetolerance="10"
     inkscape:pageopacity="0"
     inkscape:pageshadow="2"
     inkscape:window-width="1920"
     inkscape:window-height="1017"
     id="namedview6"
     showgrid="false"
     inkscape:pagecheckerboard="true"
     inkscape:zoom="13.111111"
     inkscape:cx="36.296803"
     inkscape:cy="26.346748"
     inkscape:window-x="1912"
     inkscape:window-y="108"
     inkscape:window-maximized="1"
     inkscape:current-layer="svg4" />
  <g
     id="g876"
     transform="matrix(0.02326762,0,0,0.02326762,6.60815,6.6081668)"
     style="fill:#ffffff;fill-opacity:1">
    <g
       id="g818"
       style="fill:#ffffff;fill-opacity:1">
	<path
   id="path812"
   d="m 749.451,190.2 c 0,-30.5 -12.101,-59.8 -33.7,-81.4 L 640.65,33.7 C 619.051,12.1 589.751,0 559.251,0 h -269.6 c -33.1,0 -60,26.9 -60,60 v 192.7 h 519.9 v -62.5 z"
   inkscape:connector-curvature="0"
   style="fill:#ffffff;fill-opacity:1" />

	<path
   id="path814"
   d="m 62.351,822.101 h 103 V 613.7 h 64.3 519.9 64.3 v 208.4 h 103 c 33.101,0 60,-26.9 60,-60 V 382.6 c 0,-33.1 -26.899,-60 -60,-60 h -167.4 -519.8 -167.3 c -33.1,0 -60,26.9 -60,60 v 379.5 c 0,33.2 26.8,60.001 60,60.001 z m 94.9,-417.5 c 34.8,0 63,28.199 63,63 0,34.8 -28.2,63 -63,63 -34.8,0 -63,-28.2 -63,-63 0,-34.801 28.2,-63 63,-63 z"
   inkscape:connector-curvature="0"
   style="fill:#ffffff;fill-opacity:1" />

	<path
   id="path816"
   d="m 753.851,949.3 v -57.1 -35 -35 -148.5 h -12.5 -503.6 -12.5 v 148.4 35 35 57.1 c 0,16.5 13.5,30 30,30 h 468.6 c 16.5,0.1 30,-13.4 30,-29.9 z m -394.3,-152.8 h 260 c 15.1,0 27.6,11.101 29.7,25.601 0.2,1.399 0.3,2.899 0.3,4.399 0,16.601 -13.4,30 -30,30 h -260 c -16.6,0 -30,-13.399 -30,-30 0,-1.5 0.1,-2.899 0.3,-4.399 2.1,-14.5 14.6,-25.601 29.7,-25.601 z"
   inkscape:connector-curvature="0"
   style="fill:#ffffff;fill-opacity:1" />

</g>
    <g
       id="g820"
       style="fill:#ffffff;fill-opacity:1">
</g>
    <g
       id="g822"
       style="fill:#ffffff;fill-opacity:1">
</g>
    <g
       id="g824"
       style="fill:#ffffff;fill-opacity:1">
</g>
    <g
       id="g826"
       style="fill:#ffffff;fill-opacity:1">
</g>
    <g
       id="g828"
       style="fill:#ffffff;fill-opacity:1">
</g>
    <g
       id="g830"
       style="fill:#ffffff;fill-opacity:1">
</g>
    <g
       id="g832"
       style="fill:#ffffff;fill-opacity:1">
</g>
    <g
       id="g834"
       style="fill:#ffffff;fill-opacity:1">
</g>
    <g
       id="g836"
       style="fill:#ffffff;fill-opacity:1">
</g>
    <g
       id="g838"
       style="fill:#ffffff;fill-opacity:1">
</g>
    <g
       id="g840"
       style="fill:#ffffff;fill-opacity:1">
</g>
    <g
       id="g842"
       style="fill:#ffffff;fill-opacity:1">
</g>
    <g
       id="g844"
       style="fill:#ffffff;fill-opacity:1">
</g>
    <g
       id="g846"
       style="fill:#ffffff;fill-opacity:1">
</g>
    <g
       id="g848"
       style="fill:#ffffff;fill-opacity:1">
</g>
  </g>
</svg>
