<svg
   xmlns="http://www.w3.org/2000/svg"
   xmlns:sodipodi="http://sodipodi.sourceforge.net/DTD/sodipodi-0.dtd"
   xmlns:inkscape="http://www.inkscape.org/namespaces/inkscape"
   viewBox="0 0 36 36"
   width="36"
   height="36">
  <path
     d="m 22.787618,21.070218 c -1.084554,0 -2.081368,0.375094 -2.868255,1.002379 l -4.916475,-3.07281 a 4.6317597,4.6317597 0 0 0 0,-1.999623 l 4.916475,-3.072808 c 0.786887,0.627332 1.783701,1.002427 2.868255,1.002427 2.543435,0 4.605327,-2.061892 4.605327,-4.605328 0,-2.543435 -2.061892,-4.605327 -4.605327,-4.605327 -2.543436,0 -4.605328,2.061892 -4.605328,4.605327 0,0.343385 0.0379,0.677847 0.109186,0.999788 l -4.916475,3.072808 c -0.786888,-0.627284 -1.7837,-1.002378 -2.868255,-1.002378 -2.5434355,0 -4.6053265,2.061891 -4.6053265,4.605327 0,2.543435 2.061891,4.605327 4.6053265,4.605327 1.084555,0 2.081367,-0.375095 2.868255,-1.002378 l 4.916475,3.072808 a 4.6197666,4.6197666 0 0 0 -0.109186,0.999788 c 0,2.543437 2.061892,4.605327 4.605328,4.605327 2.543435,0 4.605327,-2.06189 4.605327,-4.605327 0,-2.543436 -2.061892,-4.605327 -4.605327,-4.605327 z"
     style="fill:#ffffff;stroke-width:0.04797216;fill-opacity:1" />
</svg>
